<svg width="18" height="19" viewBox="0 0 18 19" fill="none" xmlns="http://www.w3.org/2000/svg">
<path d="M7.49547 0.407959C3.36472 0.407959 0 3.77267 0 7.90343C0 12.0342 3.36472 15.3989 7.49547 15.3989C9.29177 15.3989 10.9414 14.761 12.2343 13.7022L16.7096 18.1775C16.7787 18.2494 16.8614 18.3069 16.953 18.3464C17.0445 18.386 17.143 18.4069 17.2427 18.4079C17.3425 18.4089 17.4414 18.39 17.5337 18.3523C17.626 18.3147 17.7099 18.2589 17.7804 18.1884C17.851 18.1179 17.9067 18.034 17.9444 17.9417C17.9821 17.8493 18.001 17.7504 18 17.6507C17.9989 17.551 17.978 17.4525 17.9385 17.3609C17.8989 17.2694 17.8415 17.1867 17.7695 17.1176L13.2942 12.6423C14.3531 11.3494 14.9909 9.69973 14.9909 7.90343C14.9909 3.77267 11.6262 0.407959 7.49547 0.407959ZM7.49547 1.90705C10.8161 1.90705 13.4919 4.58285 13.4919 7.90343C13.4919 11.224 10.8161 13.8998 7.49547 13.8998C4.17489 13.8998 1.49909 11.224 1.49909 7.90343C1.49909 4.58285 4.17489 1.90705 7.49547 1.90705Z" fill="#878787"/>
</svg>
